<?xml version="1.0" encoding="utf-8" standalone="no"?>
<!DOCTYPE svg PUBLIC "-//W3C//DTD SVG 1.1//EN"
  "http://www.w3.org/Graphics/SVG/1.1/DTD/svg11.dtd">
<!-- Created with matplotlib (https://matplotlib.org/) -->
<svg height="248.4775pt" version="1.1" viewBox="0 0 383.414246 248.4775" width="383.414246pt" xmlns="http://www.w3.org/2000/svg" xmlns:xlink="http://www.w3.org/1999/xlink">
 <defs>
  <style type="text/css">
*{stroke-linecap:butt;stroke-linejoin:round;}
  </style>
 </defs>
 <g id="figure_1">
  <g id="patch_1">
   <path d="M 0 248.4775 
L 383.414246 248.4775 
L 383.414246 0 
L 0 0 
z
" style="fill:none;"/>
  </g>
  <g id="axes_1">
   <g id="patch_2">
    <path d="M 41.125 224.64 
L 375.925 224.64 
L 375.925 7.2 
L 41.125 7.2 
z
" style="fill:#ffffff;"/>
   </g>
   <g id="PathCollection_1">
    <defs>
     <path d="M 0 3 
C 0.795609 3 1.55874 2.683901 2.12132 2.12132 
C 2.683901 1.55874 3 0.795609 3 0 
C 3 -0.795609 2.683901 -1.55874 2.12132 -2.12132 
C 1.55874 -2.683901 0.795609 -3 0 -3 
C -0.795609 -3 -1.55874 -2.683901 -2.12132 -2.12132 
C -2.683901 -1.55874 -3 -0.795609 -3 0 
C -3 0.795609 -2.683901 1.55874 -2.12132 2.12132 
C -1.55874 2.683901 -0.795609 3 0 3 
z
" id="m84b7afc507" style="stroke:#1f77b4;"/>
    </defs>
    <g clip-path="url(#pcad2acf11b)">
     <use style="fill:#1f77b4;stroke:#1f77b4;" x="211.936603" xlink:href="#m84b7afc507" y="154.485665"/>
     <use style="fill:#1f77b4;stroke:#1f77b4;" x="213.838067" xlink:href="#m84b7afc507" y="103.997463"/>
     <use style="fill:#1f77b4;stroke:#1f77b4;" x="206.182367" xlink:href="#m84b7afc507" y="127.124751"/>
     <use style="fill:#1f77b4;stroke:#1f77b4;" x="208.088925" xlink:href="#m84b7afc507" y="135.994484"/>
     <use style="fill:#1f77b4;stroke:#1f77b4;" x="198.040442" xlink:href="#m84b7afc507" y="138.506751"/>
     <use style="fill:#1f77b4;stroke:#1f77b4;" x="191.348984" xlink:href="#m84b7afc507" y="25.881483"/>
     <use style="fill:#1f77b4;stroke:#1f77b4;" x="192.978233" xlink:href="#m84b7afc507" y="41.299123"/>
     <use style="fill:#1f77b4;stroke:#1f77b4;" x="201.847804" xlink:href="#m84b7afc507" y="77.77254"/>
     <use style="fill:#1f77b4;stroke:#1f77b4;" x="239.590876" xlink:href="#m84b7afc507" y="81.51553"/>
     <use style="fill:#1f77b4;stroke:#1f77b4;" x="227.964267" xlink:href="#m84b7afc507" y="54.930759"/>
     <use style="fill:#1f77b4;stroke:#1f77b4;" x="233.518949" xlink:href="#m84b7afc507" y="58.150967"/>
     <use style="fill:#1f77b4;stroke:#1f77b4;" x="237.101669" xlink:href="#m84b7afc507" y="201.72975"/>
     <use style="fill:#1f77b4;stroke:#1f77b4;" x="224.204434" xlink:href="#m84b7afc507" y="85.282451"/>
     <use style="fill:#1f77b4;stroke:#1f77b4;" x="216.52707" xlink:href="#m84b7afc507" y="41.444166"/>
     <use style="fill:#1f77b4;stroke:#1f77b4;" x="201.37585" xlink:href="#m84b7afc507" y="179.693836"/>
     <use style="fill:#1f77b4;stroke:#1f77b4;" x="240.774503" xlink:href="#m84b7afc507" y="66.772253"/>
     <use style="fill:#1f77b4;stroke:#1f77b4;" x="246.79925" xlink:href="#m84b7afc507" y="45.462171"/>
     <use style="fill:#1f77b4;stroke:#1f77b4;" x="190.315824" xlink:href="#m84b7afc507" y="117.742535"/>
     <use style="fill:#1f77b4;stroke:#1f77b4;" x="185.251305" xlink:href="#m84b7afc507" y="95.904626"/>
     <use style="fill:#1f77b4;stroke:#1f77b4;" x="211.518966" xlink:href="#m84b7afc507" y="43.886703"/>
     <use style="fill:#1f77b4;stroke:#1f77b4;" x="218.840125" xlink:href="#m84b7afc507" y="27.497175"/>
     <use style="fill:#1f77b4;stroke:#1f77b4;" x="224.133" xlink:href="#m84b7afc507" y="183.02288"/>
     <use style="fill:#1f77b4;stroke:#1f77b4;" x="190.290249" xlink:href="#m84b7afc507" y="58.671569"/>
     <use style="fill:#1f77b4;stroke:#1f77b4;" x="221.266381" xlink:href="#m84b7afc507" y="101.629006"/>
     <use style="fill:#1f77b4;stroke:#1f77b4;" x="187.995233" xlink:href="#m84b7afc507" y="163.56565"/>
     <use style="fill:#1f77b4;stroke:#1f77b4;" x="219.133044" xlink:href="#m84b7afc507" y="79.799338"/>
     <use style="fill:#1f77b4;stroke:#1f77b4;" x="219.755907" xlink:href="#m84b7afc507" y="102.373717"/>
     <use style="fill:#1f77b4;stroke:#1f77b4;" x="215.846847" xlink:href="#m84b7afc507" y="82.949204"/>
     <use style="fill:#1f77b4;stroke:#1f77b4;" x="239.282499" xlink:href="#m84b7afc507" y="75.455872"/>
     <use style="fill:#1f77b4;stroke:#1f77b4;" x="191.443596" xlink:href="#m84b7afc507" y="177.140984"/>
     <use style="fill:#1f77b4;stroke:#1f77b4;" x="200.189326" xlink:href="#m84b7afc507" y="138.496398"/>
     <use style="fill:#1f77b4;stroke:#1f77b4;" x="183.62643" xlink:href="#m84b7afc507" y="104.528856"/>
     <use style="fill:#1f77b4;stroke:#1f77b4;" x="179.478284" xlink:href="#m84b7afc507" y="75.562464"/>
     <use style="fill:#1f77b4;stroke:#1f77b4;" x="226.565614" xlink:href="#m84b7afc507" y="43.338185"/>
     <use style="fill:#1f77b4;stroke:#1f77b4;" x="211.668104" xlink:href="#m84b7afc507" y="85.215026"/>
     <use style="fill:#1f77b4;stroke:#1f77b4;" x="219.560949" xlink:href="#m84b7afc507" y="162.839886"/>
     <use style="fill:#1f77b4;stroke:#1f77b4;" x="235.49952" xlink:href="#m84b7afc507" y="171.53307"/>
     <use style="fill:#1f77b4;stroke:#1f77b4;" x="174.822499" xlink:href="#m84b7afc507" y="166.711362"/>
     <use style="fill:#1f77b4;stroke:#1f77b4;" x="201.136638" xlink:href="#m84b7afc507" y="70.634734"/>
     <use style="fill:#1f77b4;stroke:#1f77b4;" x="216.285214" xlink:href="#m84b7afc507" y="56.091483"/>
     <use style="fill:#1f77b4;stroke:#1f77b4;" x="189.578616" xlink:href="#m84b7afc507" y="57.606962"/>
     <use style="fill:#1f77b4;stroke:#1f77b4;" x="231.925125" xlink:href="#m84b7afc507" y="117.664325"/>
     <use style="fill:#1f77b4;stroke:#1f77b4;" x="207.941996" xlink:href="#m84b7afc507" y="57.788218"/>
     <use style="fill:#1f77b4;stroke:#1f77b4;" x="217.516622" xlink:href="#m84b7afc507" y="207.962668"/>
     <use style="fill:#1f77b4;stroke:#1f77b4;" x="188.021274" xlink:href="#m84b7afc507" y="146.917606"/>
     <use style="fill:#1f77b4;stroke:#1f77b4;" x="200.348189" xlink:href="#m84b7afc507" y="42.286391"/>
     <use style="fill:#1f77b4;stroke:#1f77b4;" x="184.549635" xlink:href="#m84b7afc507" y="78.531977"/>
     <use style="fill:#1f77b4;stroke:#1f77b4;" x="196.323035" xlink:href="#m84b7afc507" y="111.008743"/>
     <use style="fill:#1f77b4;stroke:#1f77b4;" x="236.264544" xlink:href="#m84b7afc507" y="121.671734"/>
     <use style="fill:#1f77b4;stroke:#1f77b4;" x="242.311978" xlink:href="#m84b7afc507" y="59.522476"/>
     <use style="fill:#1f77b4;stroke:#1f77b4;" x="201.264902" xlink:href="#m84b7afc507" y="178.158902"/>
     <use style="fill:#1f77b4;stroke:#1f77b4;" x="209.709909" xlink:href="#m84b7afc507" y="81.632637"/>
     <use style="fill:#1f77b4;stroke:#1f77b4;" x="241.473173" xlink:href="#m84b7afc507" y="149.914218"/>
     <use style="fill:#1f77b4;stroke:#1f77b4;" x="202.344093" xlink:href="#m84b7afc507" y="102.433252"/>
     <use style="fill:#1f77b4;stroke:#1f77b4;" x="208.786881" xlink:href="#m84b7afc507" y="73.671724"/>
     <use style="fill:#1f77b4;stroke:#1f77b4;" x="201.309599" xlink:href="#m84b7afc507" y="65.444398"/>
     <use style="fill:#1f77b4;stroke:#1f77b4;" x="241.983985" xlink:href="#m84b7afc507" y="105.212429"/>
     <use style="fill:#1f77b4;stroke:#1f77b4;" x="231.806931" xlink:href="#m84b7afc507" y="150.782486"/>
     <use style="fill:#1f77b4;stroke:#1f77b4;" x="226.550613" xlink:href="#m84b7afc507" y="145.835785"/>
     <use style="fill:#1f77b4;stroke:#1f77b4;" x="201.885687" xlink:href="#m84b7afc507" y="85.168777"/>
     <use style="fill:#1f77b4;stroke:#1f77b4;" x="174.735815" xlink:href="#m84b7afc507" y="148.590707"/>
     <use style="fill:#1f77b4;stroke:#1f77b4;" x="242.287581" xlink:href="#m84b7afc507" y="116.724731"/>
     <use style="fill:#1f77b4;stroke:#1f77b4;" x="236.969855" xlink:href="#m84b7afc507" y="130.069776"/>
     <use style="fill:#1f77b4;stroke:#1f77b4;" x="225.573797" xlink:href="#m84b7afc507" y="77.267245"/>
     <use style="fill:#1f77b4;stroke:#1f77b4;" x="233.927089" xlink:href="#m84b7afc507" y="125.575458"/>
     <use style="fill:#1f77b4;stroke:#1f77b4;" x="218.641721" xlink:href="#m84b7afc507" y="92.085424"/>
     <use style="fill:#1f77b4;stroke:#1f77b4;" x="192.339684" xlink:href="#m84b7afc507" y="87.834637"/>
     <use style="fill:#1f77b4;stroke:#1f77b4;" x="243.402596" xlink:href="#m84b7afc507" y="55.3424"/>
     <use style="fill:#1f77b4;stroke:#1f77b4;" x="208.917776" xlink:href="#m84b7afc507" y="72.77274"/>
     <use style="fill:#1f77b4;stroke:#1f77b4;" x="211.836133" xlink:href="#m84b7afc507" y="54.532233"/>
     <use style="fill:#1f77b4;stroke:#1f77b4;" x="208.138733" xlink:href="#m84b7afc507" y="148.624698"/>
     <use style="fill:#1f77b4;stroke:#1f77b4;" x="224.884163" xlink:href="#m84b7afc507" y="40.476056"/>
     <use style="fill:#1f77b4;stroke:#1f77b4;" x="197.01595" xlink:href="#m84b7afc507" y="180.815266"/>
     <use style="fill:#1f77b4;stroke:#1f77b4;" x="202.961497" xlink:href="#m84b7afc507" y="25.922888"/>
     <use style="fill:#1f77b4;stroke:#1f77b4;" x="230.960626" xlink:href="#m84b7afc507" y="86.767609"/>
     <use style="fill:#1f77b4;stroke:#1f77b4;" x="234.195914" xlink:href="#m84b7afc507" y="214.756364"/>
     <use style="fill:#1f77b4;stroke:#1f77b4;" x="175.213386" xlink:href="#m84b7afc507" y="134.754009"/>
     <use style="fill:#1f77b4;stroke:#1f77b4;" x="175.764387" xlink:href="#m84b7afc507" y="107.226808"/>
     <use style="fill:#1f77b4;stroke:#1f77b4;" x="186.41646" xlink:href="#m84b7afc507" y="131.954695"/>
     <use style="fill:#1f77b4;stroke:#1f77b4;" x="221.661456" xlink:href="#m84b7afc507" y="71.708655"/>
     <use style="fill:#1f77b4;stroke:#1f77b4;" x="233.525705" xlink:href="#m84b7afc507" y="200.392813"/>
     <use style="fill:#1f77b4;stroke:#1f77b4;" x="248.769487" xlink:href="#m84b7afc507" y="79.562848"/>
     <use style="fill:#1f77b4;stroke:#1f77b4;" x="225.912062" xlink:href="#m84b7afc507" y="211.925097"/>
     <use style="fill:#1f77b4;stroke:#1f77b4;" x="191.842705" xlink:href="#m84b7afc507" y="92.333829"/>
     <use style="fill:#1f77b4;stroke:#1f77b4;" x="213.93578" xlink:href="#m84b7afc507" y="53.759668"/>
     <use style="fill:#1f77b4;stroke:#1f77b4;" x="241.925337" xlink:href="#m84b7afc507" y="135.281849"/>
     <use style="fill:#1f77b4;stroke:#1f77b4;" x="207.381801" xlink:href="#m84b7afc507" y="71.956267"/>
     <use style="fill:#1f77b4;stroke:#1f77b4;" x="239.45049" xlink:href="#m84b7afc507" y="101.930807"/>
     <use style="fill:#1f77b4;stroke:#1f77b4;" x="217.372251" xlink:href="#m84b7afc507" y="166.109649"/>
     <use style="fill:#1f77b4;stroke:#1f77b4;" x="184.254102" xlink:href="#m84b7afc507" y="138.402578"/>
     <use style="fill:#1f77b4;stroke:#1f77b4;" x="213.143617" xlink:href="#m84b7afc507" y="23.545704"/>
     <use style="fill:#1f77b4;stroke:#1f77b4;" x="214.183938" xlink:href="#m84b7afc507" y="39.343167"/>
     <use style="fill:#1f77b4;stroke:#1f77b4;" x="210.540828" xlink:href="#m84b7afc507" y="193.031318"/>
     <use style="fill:#1f77b4;stroke:#1f77b4;" x="183.341938" xlink:href="#m84b7afc507" y="81.936587"/>
     <use style="fill:#1f77b4;stroke:#1f77b4;" x="190.304443" xlink:href="#m84b7afc507" y="41.695731"/>
     <use style="fill:#1f77b4;stroke:#1f77b4;" x="239.260587" xlink:href="#m84b7afc507" y="186.186989"/>
     <use style="fill:#1f77b4;stroke:#1f77b4;" x="172.686886" xlink:href="#m84b7afc507" y="136.902045"/>
     <use style="fill:#1f77b4;stroke:#1f77b4;" x="217.226678" xlink:href="#m84b7afc507" y="208.351492"/>
     <use style="fill:#1f77b4;stroke:#1f77b4;" x="177.507857" xlink:href="#m84b7afc507" y="144.286175"/>
     <use style="fill:#1f77b4;stroke:#1f77b4;" x="212.268912" xlink:href="#m84b7afc507" y="130.504226"/>
    </g>
   </g>
   <g id="PathCollection_2">
    <defs>
     <path d="M 0 3 
C 0.795609 3 1.55874 2.683901 2.12132 2.12132 
C 2.683901 1.55874 3 0.795609 3 0 
C 3 -0.795609 2.683901 -1.55874 2.12132 -2.12132 
C 1.55874 -2.683901 0.795609 -3 0 -3 
C -0.795609 -3 -1.55874 -2.683901 -2.12132 -2.12132 
C -2.683901 -1.55874 -3 -0.795609 -3 0 
C -3 0.795609 -2.683901 1.55874 -2.12132 2.12132 
C -1.55874 2.683901 -0.795609 3 0 3 
z
" id="m19b52ab8ff" style="stroke:#ff7f0e;"/>
    </defs>
    <g clip-path="url(#pcad2acf11b)">
     <use style="fill:#ff7f0e;stroke:#ff7f0e;" x="275.984081" xlink:href="#m19b52ab8ff" y="76.451554"/>
     <use style="fill:#ff7f0e;stroke:#ff7f0e;" x="189.896452" xlink:href="#m19b52ab8ff" y="125.537098"/>
     <use style="fill:#ff7f0e;stroke:#ff7f0e;" x="235.935119" xlink:href="#m19b52ab8ff" y="103.265766"/>
     <use style="fill:#ff7f0e;stroke:#ff7f0e;" x="248.877922" xlink:href="#m19b52ab8ff" y="94.571965"/>
     <use style="fill:#ff7f0e;stroke:#ff7f0e;" x="262.85072" xlink:href="#m19b52ab8ff" y="92.442628"/>
     <use style="fill:#ff7f0e;stroke:#ff7f0e;" x="81.455257" xlink:href="#m19b52ab8ff" y="202.282892"/>
     <use style="fill:#ff7f0e;stroke:#ff7f0e;" x="105.592809" xlink:href="#m19b52ab8ff" y="187.224064"/>
     <use style="fill:#ff7f0e;stroke:#ff7f0e;" x="157.812995" xlink:href="#m19b52ab8ff" y="151.44171"/>
     <use style="fill:#ff7f0e;stroke:#ff7f0e;" x="127.318749" xlink:href="#m19b52ab8ff" y="146.61093"/>
     <use style="fill:#ff7f0e;stroke:#ff7f0e;" x="94.280925" xlink:href="#m19b52ab8ff" y="172.854379"/>
     <use style="fill:#ff7f0e;stroke:#ff7f0e;" x="94.246718" xlink:href="#m19b52ab8ff" y="169.545077"/>
     <use style="fill:#ff7f0e;stroke:#ff7f0e;" x="330.31244" xlink:href="#m19b52ab8ff" y="29.672369"/>
     <use style="fill:#ff7f0e;stroke:#ff7f0e;" x="148.580854" xlink:href="#m19b52ab8ff" y="143.428233"/>
     <use style="fill:#ff7f0e;stroke:#ff7f0e;" x="82.912299" xlink:href="#m19b52ab8ff" y="186.342066"/>
     <use style="fill:#ff7f0e;stroke:#ff7f0e;" x="328.322368" xlink:href="#m19b52ab8ff" y="52.246073"/>
     <use style="fill:#ff7f0e;stroke:#ff7f0e;" x="101.568273" xlink:href="#m19b52ab8ff" y="160.924844"/>
     <use style="fill:#ff7f0e;stroke:#ff7f0e;" x="60.149088" xlink:href="#m19b52ab8ff" y="181.47861"/>
     <use style="fill:#ff7f0e;stroke:#ff7f0e;" x="235.725955" xlink:href="#m19b52ab8ff" y="112.897581"/>
     <use style="fill:#ff7f0e;stroke:#ff7f0e;" x="204.220444" xlink:href="#m19b52ab8ff" y="134.313987"/>
     <use style="fill:#ff7f0e;stroke:#ff7f0e;" x="91.86244" xlink:href="#m19b52ab8ff" y="184.12204"/>
     <use style="fill:#ff7f0e;stroke:#ff7f0e;" x="57.390992" xlink:href="#m19b52ab8ff" y="199.845342"/>
     <use style="fill:#ff7f0e;stroke:#ff7f0e;" x="311.724815" xlink:href="#m19b52ab8ff" y="48.289666"/>
     <use style="fill:#ff7f0e;stroke:#ff7f0e;" x="137.194254" xlink:href="#m19b52ab8ff" y="170.398234"/>
     <use style="fill:#ff7f0e;stroke:#ff7f0e;" x="178.714073" xlink:href="#m19b52ab8ff" y="127.608877"/>
     <use style="fill:#ff7f0e;stroke:#ff7f0e;" x="314.438124" xlink:href="#m19b52ab8ff" y="68.366231"/>
     <use style="fill:#ff7f0e;stroke:#ff7f0e;" x="144.369092" xlink:href="#m19b52ab8ff" y="148.92505"/>
     <use style="fill:#ff7f0e;stroke:#ff7f0e;" x="181.426883" xlink:href="#m19b52ab8ff" y="126.93149"/>
     <use style="fill:#ff7f0e;stroke:#ff7f0e;" x="152.82326" xlink:href="#m19b52ab8ff" y="145.962341"/>
     <use style="fill:#ff7f0e;stroke:#ff7f0e;" x="117.508724" xlink:href="#m19b52ab8ff" y="152.519121"/>
     <use style="fill:#ff7f0e;stroke:#ff7f0e;" x="333.731162" xlink:href="#m19b52ab8ff" y="55.043481"/>
     <use style="fill:#ff7f0e;stroke:#ff7f0e;" x="260.741716" xlink:href="#m19b52ab8ff" y="92.385105"/>
     <use style="fill:#ff7f0e;stroke:#ff7f0e;" x="220.191148" xlink:href="#m19b52ab8ff" y="125.970253"/>
     <use style="fill:#ff7f0e;stroke:#ff7f0e;" x="175.900163" xlink:href="#m19b52ab8ff" y="154.296717"/>
     <use style="fill:#ff7f0e;stroke:#ff7f0e;" x="76.300816" xlink:href="#m19b52ab8ff" y="184.182624"/>
     <use style="fill:#ff7f0e;stroke:#ff7f0e;" x="160.671258" xlink:href="#m19b52ab8ff" y="143.888241"/>
     <use style="fill:#ff7f0e;stroke:#ff7f0e;" x="282.50107" xlink:href="#m19b52ab8ff" y="68.07968"/>
     <use style="fill:#ff7f0e;stroke:#ff7f0e;" x="281.490509" xlink:href="#m19b52ab8ff" y="59.116305"/>
     <use style="fill:#ff7f0e;stroke:#ff7f0e;" x="332.508947" xlink:href="#m19b52ab8ff" y="65.718581"/>
     <use style="fill:#ff7f0e;stroke:#ff7f0e;" x="146.596218" xlink:href="#m19b52ab8ff" y="158.412043"/>
     <use style="fill:#ff7f0e;stroke:#ff7f0e;" x="107.58595" xlink:href="#m19b52ab8ff" y="172.091934"/>
     <use style="fill:#ff7f0e;stroke:#ff7f0e;" x="136.110722" xlink:href="#m19b52ab8ff" y="171.456913"/>
     <use style="fill:#ff7f0e;stroke:#ff7f0e;" x="195.092852" xlink:href="#m19b52ab8ff" y="111.664743"/>
     <use style="fill:#ff7f0e;stroke:#ff7f0e;" x="118.538171" xlink:href="#m19b52ab8ff" y="170.702792"/>
     <use style="fill:#ff7f0e;stroke:#ff7f0e;" x="359.775856" xlink:href="#m19b52ab8ff" y="24.221346"/>
     <use style="fill:#ff7f0e;stroke:#ff7f0e;" x="286.636448" xlink:href="#m19b52ab8ff" y="84.570666"/>
     <use style="fill:#ff7f0e;stroke:#ff7f0e;" x="100.066074" xlink:href="#m19b52ab8ff" y="186.031206"/>
     <use style="fill:#ff7f0e;stroke:#ff7f0e;" x="175.918162" xlink:href="#m19b52ab8ff" y="151.246647"/>
     <use style="fill:#ff7f0e;stroke:#ff7f0e;" x="218.643564" xlink:href="#m19b52ab8ff" y="119.263295"/>
     <use style="fill:#ff7f0e;stroke:#ff7f0e;" x="197.554987" xlink:href="#m19b52ab8ff" y="107.627407"/>
     <use style="fill:#ff7f0e;stroke:#ff7f0e;" x="87.975843" xlink:href="#m19b52ab8ff" y="167.933431"/>
     <use style="fill:#ff7f0e;stroke:#ff7f0e;" x="325.869413" xlink:href="#m19b52ab8ff" y="53.743673"/>
     <use style="fill:#ff7f0e;stroke:#ff7f0e;" x="156.600356" xlink:href="#m19b52ab8ff" y="147.43695"/>
     <use style="fill:#ff7f0e;stroke:#ff7f0e;" x="239.605895" xlink:href="#m19b52ab8ff" y="79.972236"/>
     <use style="fill:#ff7f0e;stroke:#ff7f0e;" x="198.474922" xlink:href="#m19b52ab8ff" y="127.42129"/>
     <use style="fill:#ff7f0e;stroke:#ff7f0e;" x="144.216496" xlink:href="#m19b52ab8ff" y="155.215163"/>
     <use style="fill:#ff7f0e;stroke:#ff7f0e;" x="137.768073" xlink:href="#m19b52ab8ff" y="163.45889"/>
     <use style="fill:#ff7f0e;stroke:#ff7f0e;" x="164.526239" xlink:href="#m19b52ab8ff" y="123.469017"/>
     <use style="fill:#ff7f0e;stroke:#ff7f0e;" x="250.463699" xlink:href="#m19b52ab8ff" y="79.431147"/>
     <use style="fill:#ff7f0e;stroke:#ff7f0e;" x="247.32692" xlink:href="#m19b52ab8ff" y="84.411637"/>
     <use style="fill:#ff7f0e;stroke:#ff7f0e;" x="170.116327" xlink:href="#m19b52ab8ff" y="144.241"/>
     <use style="fill:#ff7f0e;stroke:#ff7f0e;" x="302.360028" xlink:href="#m19b52ab8ff" y="83.360005"/>
     <use style="fill:#ff7f0e;stroke:#ff7f0e;" x="183.438348" xlink:href="#m19b52ab8ff" y="112.253358"/>
     <use style="fill:#ff7f0e;stroke:#ff7f0e;" x="210.880098" xlink:href="#m19b52ab8ff" y="99.430541"/>
     <use style="fill:#ff7f0e;stroke:#ff7f0e;" x="133.874989" xlink:href="#m19b52ab8ff" y="151.187181"/>
     <use style="fill:#ff7f0e;stroke:#ff7f0e;" x="206.343417" xlink:href="#m19b52ab8ff" y="103.901044"/>
     <use style="fill:#ff7f0e;stroke:#ff7f0e;" x="165.345993" xlink:href="#m19b52ab8ff" y="136.981195"/>
     <use style="fill:#ff7f0e;stroke:#ff7f0e;" x="183.856272" xlink:href="#m19b52ab8ff" y="141.946348"/>
     <use style="fill:#ff7f0e;stroke:#ff7f0e;" x="79.940011" xlink:href="#m19b52ab8ff" y="171.968019"/>
     <use style="fill:#ff7f0e;stroke:#ff7f0e;" x="142.589178" xlink:href="#m19b52ab8ff" y="156.086119"/>
     <use style="fill:#ff7f0e;stroke:#ff7f0e;" x="109.315178" xlink:href="#m19b52ab8ff" y="173.749674"/>
     <use style="fill:#ff7f0e;stroke:#ff7f0e;" x="269.902243" xlink:href="#m19b52ab8ff" y="82.276111"/>
     <use style="fill:#ff7f0e;stroke:#ff7f0e;" x="73.162245" xlink:href="#m19b52ab8ff" y="187.021524"/>
     <use style="fill:#ff7f0e;stroke:#ff7f0e;" x="334.43735" xlink:href="#m19b52ab8ff" y="51.291626"/>
     <use style="fill:#ff7f0e;stroke:#ff7f0e;" x="70.220685" xlink:href="#m19b52ab8ff" y="201.877276"/>
     <use style="fill:#ff7f0e;stroke:#ff7f0e;" x="144.482259" xlink:href="#m19b52ab8ff" y="141.770037"/>
     <use style="fill:#ff7f0e;stroke:#ff7f0e;" x="354.875086" xlink:href="#m19b52ab8ff" y="17.083636"/>
     <use style="fill:#ff7f0e;stroke:#ff7f0e;" x="278.809402" xlink:href="#m19b52ab8ff" y="96.813664"/>
     <use style="fill:#ff7f0e;stroke:#ff7f0e;" x="232.345465" xlink:href="#m19b52ab8ff" y="123.591387"/>
     <use style="fill:#ff7f0e;stroke:#ff7f0e;" x="263.233799" xlink:href="#m19b52ab8ff" y="99.186092"/>
     <use style="fill:#ff7f0e;stroke:#ff7f0e;" x="128.409077" xlink:href="#m19b52ab8ff" y="156.721004"/>
     <use style="fill:#ff7f0e;stroke:#ff7f0e;" x="331.562689" xlink:href="#m19b52ab8ff" y="31.086242"/>
     <use style="fill:#ff7f0e;stroke:#ff7f0e;" x="115.126324" xlink:href="#m19b52ab8ff" y="148.222931"/>
     <use style="fill:#ff7f0e;stroke:#ff7f0e;" x="358.2148" xlink:href="#m19b52ab8ff" y="20.100198"/>
     <use style="fill:#ff7f0e;stroke:#ff7f0e;" x="191.846683" xlink:href="#m19b52ab8ff" y="137.582455"/>
     <use style="fill:#ff7f0e;stroke:#ff7f0e;" x="105.982394" xlink:href="#m19b52ab8ff" y="174.435639"/>
     <use style="fill:#ff7f0e;stroke:#ff7f0e;" x="214.752468" xlink:href="#m19b52ab8ff" y="94.201202"/>
     <use style="fill:#ff7f0e;stroke:#ff7f0e;" x="142.722062" xlink:href="#m19b52ab8ff" y="156.929195"/>
     <use style="fill:#ff7f0e;stroke:#ff7f0e;" x="161.517147" xlink:href="#m19b52ab8ff" y="126.743058"/>
     <use style="fill:#ff7f0e;stroke:#ff7f0e;" x="290.086971" xlink:href="#m19b52ab8ff" y="64.965736"/>
     <use style="fill:#ff7f0e;stroke:#ff7f0e;" x="276.096577" xlink:href="#m19b52ab8ff" y="92.977729"/>
     <use style="fill:#ff7f0e;stroke:#ff7f0e;" x="56.343182" xlink:href="#m19b52ab8ff" y="203.870919"/>
     <use style="fill:#ff7f0e;stroke:#ff7f0e;" x="81.687712" xlink:href="#m19b52ab8ff" y="188.460896"/>
     <use style="fill:#ff7f0e;stroke:#ff7f0e;" x="341.653992" xlink:href="#m19b52ab8ff" y="38.975013"/>
     <use style="fill:#ff7f0e;stroke:#ff7f0e;" x="182.774139" xlink:href="#m19b52ab8ff" y="147.970582"/>
     <use style="fill:#ff7f0e;stroke:#ff7f0e;" x="108.857202" xlink:href="#m19b52ab8ff" y="186.922117"/>
     <use style="fill:#ff7f0e;stroke:#ff7f0e;" x="302.278718" xlink:href="#m19b52ab8ff" y="44.73382"/>
     <use style="fill:#ff7f0e;stroke:#ff7f0e;" x="284.852582" xlink:href="#m19b52ab8ff" y="94.80224"/>
     <use style="fill:#ff7f0e;stroke:#ff7f0e;" x="360.706818" xlink:href="#m19b52ab8ff" y="23.851985"/>
     <use style="fill:#ff7f0e;stroke:#ff7f0e;" x="292.479842" xlink:href="#m19b52ab8ff" y="87.462846"/>
     <use style="fill:#ff7f0e;stroke:#ff7f0e;" x="235.648922" xlink:href="#m19b52ab8ff" y="99.784702"/>
    </g>
   </g>
   <g id="matplotlib.axis_1">
    <g id="xtick_1">
     <g id="line2d_1">
      <defs>
       <path d="M 0 0 
L 0 3.5 
" id="m7c13b8aff0" style="stroke:#000000;stroke-width:0.8;"/>
      </defs>
      <g>
       <use style="stroke:#000000;stroke-width:0.8;" x="55.216449" xlink:href="#m7c13b8aff0" y="224.64"/>
      </g>
     </g>
     <g id="text_1">
      <!-- −100 -->
      <defs>
       <path d="M 10.84375 25.296875 
L 10.84375 32.515625 
L 68.65625 32.515625 
L 68.65625 25.296875 
z
" id="LucidaGrande-8722"/>
       <path d="M 15.046875 0 
L 15.046875 7.234375 
L 29.5 7.234375 
L 29.5 64.265625 
L 15.046875 60.640625 
L 15.046875 68.0625 
L 39.15625 74.078125 
L 39.15625 7.234375 
L 53.609375 7.234375 
L 53.609375 0 
z
" id="LucidaGrande-49"/>
       <path d="M 31.34375 -1.8125 
Q 20.171875 -1.8125 13.25 8.703125 
Q 6.34375 19.234375 6.34375 36.1875 
Q 6.34375 53.265625 13.296875 63.671875 
Q 20.265625 74.078125 31.640625 74.078125 
Q 43.015625 74.078125 49.96875 63.671875 
Q 56.9375 53.265625 56.9375 36.328125 
Q 56.9375 18.953125 49.96875 8.5625 
Q 43.015625 -1.8125 31.34375 -1.8125 
z
M 31.453125 5.421875 
Q 46.734375 5.421875 46.734375 36.46875 
Q 46.734375 66.84375 31.640625 66.84375 
Q 16.609375 66.84375 16.609375 36.1875 
Q 16.609375 5.421875 31.453125 5.421875 
z
" id="LucidaGrande-48"/>
      </defs>
      <g transform="translate(41.753949 239.349375)scale(0.1 -0.1)">
       <use xlink:href="#LucidaGrande-8722"/>
       <use x="79.541016" xlink:href="#LucidaGrande-49"/>
       <use x="142.773438" xlink:href="#LucidaGrande-48"/>
       <use x="206.005859" xlink:href="#LucidaGrande-48"/>
      </g>
     </g>
    </g>
    <g id="xtick_2">
     <g id="line2d_2">
      <g>
       <use style="stroke:#000000;stroke-width:0.8;" x="94.155529" xlink:href="#m7c13b8aff0" y="224.64"/>
      </g>
     </g>
     <g id="text_2">
      <!-- −75 -->
      <defs>
       <path d="M 15.046875 0 
Q 16.453125 8.453125 19.0625 14.59375 
Q 21.6875 20.75 28.328125 31.5 
L 48.046875 63.234375 
L 10.84375 63.234375 
L 10.84375 72.265625 
L 57.234375 72.265625 
L 57.234375 63.234375 
Q 29.4375 22.265625 26.125 0 
z
" id="LucidaGrande-55"/>
       <path d="M 12.15625 -0.296875 
L 12.15625 8.296875 
Q 19.34375 5.421875 25.828125 5.421875 
Q 32.953125 5.421875 37.03125 9.609375 
Q 41.109375 13.8125 41.109375 21.1875 
Q 41.109375 37.453125 18.703125 37.453125 
Q 16.15625 37.453125 13.375 37.109375 
L 13.375 72.265625 
L 49.953125 72.265625 
L 49.953125 63.875 
L 21.828125 63.875 
L 21.828125 44.828125 
Q 35.75 44.828125 43.5625 38.421875 
Q 51.375 32.03125 51.375 20.703125 
Q 51.375 10.15625 44.265625 4.171875 
Q 37.15625 -1.8125 24.5625 -1.8125 
Q 19.09375 -1.8125 12.15625 -0.296875 
z
" id="LucidaGrande-53"/>
      </defs>
      <g transform="translate(83.854747 239.349375)scale(0.1 -0.1)">
       <use xlink:href="#LucidaGrande-8722"/>
       <use x="79.541016" xlink:href="#LucidaGrande-55"/>
       <use x="142.773438" xlink:href="#LucidaGrande-53"/>
      </g>
     </g>
    </g>
    <g id="xtick_3">
     <g id="line2d_3">
      <g>
       <use style="stroke:#000000;stroke-width:0.8;" x="133.094609" xlink:href="#m7c13b8aff0" y="224.64"/>
      </g>
     </g>
     <g id="text_3">
      <!-- −50 -->
      <g transform="translate(122.793827 239.349375)scale(0.1 -0.1)">
       <use xlink:href="#LucidaGrande-8722"/>
       <use x="79.541016" xlink:href="#LucidaGrande-53"/>
       <use x="142.773438" xlink:href="#LucidaGrande-48"/>
      </g>
     </g>
    </g>
    <g id="xtick_4">
     <g id="line2d_4">
      <g>
       <use style="stroke:#000000;stroke-width:0.8;" x="172.033689" xlink:href="#m7c13b8aff0" y="224.64"/>
      </g>
     </g>
     <g id="text_4">
      <!-- −25 -->
      <defs>
       <path d="M 8.296875 0 
L 8.296875 8.453125 
Q 12.5 18.265625 25.296875 29.828125 
L 30.8125 34.765625 
Q 41.453125 44.390625 41.453125 53.859375 
Q 41.453125 59.90625 37.8125 63.375 
Q 34.1875 66.84375 27.828125 66.84375 
Q 20.3125 66.84375 10.109375 61.03125 
L 10.109375 69.53125 
Q 19.734375 74.078125 29.203125 74.078125 
Q 39.359375 74.078125 45.5 68.609375 
Q 51.65625 63.140625 51.65625 54.109375 
Q 51.65625 47.609375 48.546875 42.578125 
Q 45.453125 37.546875 37.015625 30.375 
L 33.296875 27.203125 
Q 21.734375 17.390625 19.921875 8.453125 
L 51.3125 8.453125 
L 51.3125 0 
z
" id="LucidaGrande-50"/>
      </defs>
      <g transform="translate(161.732908 239.349375)scale(0.1 -0.1)">
       <use xlink:href="#LucidaGrande-8722"/>
       <use x="79.541016" xlink:href="#LucidaGrande-50"/>
       <use x="142.773438" xlink:href="#LucidaGrande-53"/>
      </g>
     </g>
    </g>
    <g id="xtick_5">
     <g id="line2d_5">
      <g>
       <use style="stroke:#000000;stroke-width:0.8;" x="210.972769" xlink:href="#m7c13b8aff0" y="224.64"/>
      </g>
     </g>
     <g id="text_5">
      <!-- 0 -->
      <g transform="translate(207.81105 239.349375)scale(0.1 -0.1)">
       <use xlink:href="#LucidaGrande-48"/>
      </g>
     </g>
    </g>
    <g id="xtick_6">
     <g id="line2d_6">
      <g>
       <use style="stroke:#000000;stroke-width:0.8;" x="249.911849" xlink:href="#m7c13b8aff0" y="224.64"/>
      </g>
     </g>
     <g id="text_6">
      <!-- 25 -->
      <g transform="translate(243.588412 239.349375)scale(0.1 -0.1)">
       <use xlink:href="#LucidaGrande-50"/>
       <use x="63.232422" xlink:href="#LucidaGrande-53"/>
      </g>
     </g>
    </g>
    <g id="xtick_7">
     <g id="line2d_7">
      <g>
       <use style="stroke:#000000;stroke-width:0.8;" x="288.850929" xlink:href="#m7c13b8aff0" y="224.64"/>
      </g>
     </g>
     <g id="text_7">
      <!-- 50 -->
      <g transform="translate(282.527492 239.349375)scale(0.1 -0.1)">
       <use xlink:href="#LucidaGrande-53"/>
       <use x="63.232422" xlink:href="#LucidaGrande-48"/>
      </g>
     </g>
    </g>
    <g id="xtick_8">
     <g id="line2d_8">
      <g>
       <use style="stroke:#000000;stroke-width:0.8;" x="327.790009" xlink:href="#m7c13b8aff0" y="224.64"/>
      </g>
     </g>
     <g id="text_8">
      <!-- 75 -->
      <g transform="translate(321.466572 239.349375)scale(0.1 -0.1)">
       <use xlink:href="#LucidaGrande-55"/>
       <use x="63.232422" xlink:href="#LucidaGrande-53"/>
      </g>
     </g>
    </g>
    <g id="xtick_9">
     <g id="line2d_9">
      <g>
       <use style="stroke:#000000;stroke-width:0.8;" x="366.729089" xlink:href="#m7c13b8aff0" y="224.64"/>
      </g>
     </g>
     <g id="text_9">
      <!-- 100 -->
      <g transform="translate(357.243933 239.349375)scale(0.1 -0.1)">
       <use xlink:href="#LucidaGrande-49"/>
       <use x="63.232422" xlink:href="#LucidaGrande-48"/>
       <use x="126.464844" xlink:href="#LucidaGrande-48"/>
      </g>
     </g>
    </g>
   </g>
   <g id="matplotlib.axis_2">
    <g id="ytick_1">
     <g id="line2d_10">
      <defs>
       <path d="M 0 0 
L -3.5 0 
" id="mb485b08061" style="stroke:#000000;stroke-width:0.8;"/>
      </defs>
      <g>
       <use style="stroke:#000000;stroke-width:0.8;" x="41.125" xlink:href="#mb485b08061" y="200.507948"/>
      </g>
     </g>
     <g id="text_10">
      <!-- −400 -->
      <defs>
       <path d="M 37.640625 0 
L 37.640625 20.453125 
L 5.125 20.453125 
L 5.125 27.734375 
L 37.640625 72.265625 
L 46.6875 72.265625 
L 46.6875 28.328125 
L 56.34375 28.328125 
L 56.34375 20.453125 
L 46.6875 20.453125 
L 46.6875 0 
z
M 14.546875 28.328125 
L 38.28125 28.328125 
L 38.28125 60.453125 
z
" id="LucidaGrande-52"/>
      </defs>
      <g transform="translate(7.2 204.362636)scale(0.1 -0.1)">
       <use xlink:href="#LucidaGrande-8722"/>
       <use x="79.541016" xlink:href="#LucidaGrande-52"/>
       <use x="142.773438" xlink:href="#LucidaGrande-48"/>
       <use x="206.005859" xlink:href="#LucidaGrande-48"/>
      </g>
     </g>
    </g>
    <g id="ytick_2">
     <g id="line2d_11">
      <g>
       <use style="stroke:#000000;stroke-width:0.8;" x="41.125" xlink:href="#mb485b08061" y="157.733029"/>
      </g>
     </g>
     <g id="text_11">
      <!-- −200 -->
      <g transform="translate(7.2 161.587717)scale(0.1 -0.1)">
       <use xlink:href="#LucidaGrande-8722"/>
       <use x="79.541016" xlink:href="#LucidaGrande-50"/>
       <use x="142.773438" xlink:href="#LucidaGrande-48"/>
       <use x="206.005859" xlink:href="#LucidaGrande-48"/>
      </g>
     </g>
    </g>
    <g id="ytick_3">
     <g id="line2d_12">
      <g>
       <use style="stroke:#000000;stroke-width:0.8;" x="41.125" xlink:href="#mb485b08061" y="114.95811"/>
      </g>
     </g>
     <g id="text_12">
      <!-- 0 -->
      <g transform="translate(27.801562 118.812798)scale(0.1 -0.1)">
       <use xlink:href="#LucidaGrande-48"/>
      </g>
     </g>
    </g>
    <g id="ytick_4">
     <g id="line2d_13">
      <g>
       <use style="stroke:#000000;stroke-width:0.8;" x="41.125" xlink:href="#mb485b08061" y="72.183191"/>
      </g>
     </g>
     <g id="text_13">
      <!-- 200 -->
      <g transform="translate(15.154687 76.037879)scale(0.1 -0.1)">
       <use xlink:href="#LucidaGrande-50"/>
       <use x="63.232422" xlink:href="#LucidaGrande-48"/>
       <use x="126.464844" xlink:href="#LucidaGrande-48"/>
      </g>
     </g>
    </g>
    <g id="ytick_5">
     <g id="line2d_14">
      <g>
       <use style="stroke:#000000;stroke-width:0.8;" x="41.125" xlink:href="#mb485b08061" y="29.408273"/>
      </g>
     </g>
     <g id="text_14">
      <!-- 400 -->
      <g transform="translate(15.154687 33.26296)scale(0.1 -0.1)">
       <use xlink:href="#LucidaGrande-52"/>
       <use x="63.232422" xlink:href="#LucidaGrande-48"/>
       <use x="126.464844" xlink:href="#LucidaGrande-48"/>
      </g>
     </g>
    </g>
   </g>
   <g id="patch_3">
    <path d="M 41.125 224.64 
L 41.125 7.2 
" style="fill:none;stroke:#000000;stroke-linecap:square;stroke-linejoin:miter;stroke-width:0.8;"/>
   </g>
   <g id="patch_4">
    <path d="M 375.925 224.64 
L 375.925 7.2 
" style="fill:none;stroke:#000000;stroke-linecap:square;stroke-linejoin:miter;stroke-width:0.8;"/>
   </g>
   <g id="patch_5">
    <path d="M 41.125 224.64 
L 375.925 224.64 
" style="fill:none;stroke:#000000;stroke-linecap:square;stroke-linejoin:miter;stroke-width:0.8;"/>
   </g>
   <g id="patch_6">
    <path d="M 41.125 7.2 
L 375.925 7.2 
" style="fill:none;stroke:#000000;stroke-linecap:square;stroke-linejoin:miter;stroke-width:0.8;"/>
   </g>
  </g>
 </g>
 <defs>
  <clipPath id="pcad2acf11b">
   <rect height="217.44" width="334.8" x="41.125" y="7.2"/>
  </clipPath>
 </defs>
</svg>
