<?xml version="1.0" encoding="utf-8" standalone="no"?>
<!DOCTYPE svg PUBLIC "-//W3C//DTD SVG 1.1//EN"
  "http://www.w3.org/Graphics/SVG/1.1/DTD/svg11.dtd">
<!-- Created with matplotlib (https://matplotlib.org/) -->
<svg height="248.4775pt" version="1.1" viewBox="0 0 383.414246 248.4775" width="383.414246pt" xmlns="http://www.w3.org/2000/svg" xmlns:xlink="http://www.w3.org/1999/xlink">
 <defs>
  <style type="text/css">
*{stroke-linecap:butt;stroke-linejoin:round;}
  </style>
 </defs>
 <g id="figure_1">
  <g id="patch_1">
   <path d="M 0 248.4775 
L 383.414246 248.4775 
L 383.414246 0 
L 0 0 
z
" style="fill:none;"/>
  </g>
  <g id="axes_1">
   <g id="patch_2">
    <path d="M 41.125 224.64 
L 375.925 224.64 
L 375.925 7.2 
L 41.125 7.2 
z
" style="fill:#ffffff;"/>
   </g>
   <g id="PathCollection_1">
    <defs>
     <path d="M 0 3 
C 0.795609 3 1.55874 2.683901 2.12132 2.12132 
C 2.683901 1.55874 3 0.795609 3 0 
C 3 -0.795609 2.683901 -1.55874 2.12132 -2.12132 
C 1.55874 -2.683901 0.795609 -3 0 -3 
C -0.795609 -3 -1.55874 -2.683901 -2.12132 -2.12132 
C -2.683901 -1.55874 -3 -0.795609 -3 0 
C -3 0.795609 -2.683901 1.55874 -2.12132 2.12132 
C -1.55874 2.683901 -0.795609 3 0 3 
z
" id="ma38376ca16" style="stroke:#1f77b4;"/>
    </defs>
    <g clip-path="url(#p94de7dbd84)">
     <use style="fill:#1f77b4;stroke:#1f77b4;" x="275.984081" xlink:href="#ma38376ca16" y="79.911351"/>
     <use style="fill:#1f77b4;stroke:#1f77b4;" x="189.896452" xlink:href="#ma38376ca16" y="131.857466"/>
     <use style="fill:#1f77b4;stroke:#1f77b4;" x="235.935119" xlink:href="#ma38376ca16" y="108.288222"/>
     <use style="fill:#1f77b4;stroke:#1f77b4;" x="248.877922" xlink:href="#ma38376ca16" y="99.08777"/>
     <use style="fill:#1f77b4;stroke:#1f77b4;" x="262.85072" xlink:href="#ma38376ca16" y="96.834341"/>
     <use style="fill:#1f77b4;stroke:#1f77b4;" x="81.455257" xlink:href="#ma38376ca16" y="213.075791"/>
     <use style="fill:#1f77b4;stroke:#1f77b4;" x="105.592809" xlink:href="#ma38376ca16" y="197.139376"/>
     <use style="fill:#1f77b4;stroke:#1f77b4;" x="157.812995" xlink:href="#ma38376ca16" y="159.271727"/>
     <use style="fill:#1f77b4;stroke:#1f77b4;" x="127.318749" xlink:href="#ma38376ca16" y="154.159422"/>
     <use style="fill:#1f77b4;stroke:#1f77b4;" x="94.280925" xlink:href="#ma38376ca16" y="181.932266"/>
     <use style="fill:#1f77b4;stroke:#1f77b4;" x="94.246718" xlink:href="#ma38376ca16" y="178.430107"/>
     <use style="fill:#1f77b4;stroke:#1f77b4;" x="330.31244" xlink:href="#ma38376ca16" y="30.406005"/>
     <use style="fill:#1f77b4;stroke:#1f77b4;" x="148.580854" xlink:href="#ma38376ca16" y="150.791246"/>
     <use style="fill:#1f77b4;stroke:#1f77b4;" x="82.912299" xlink:href="#ma38376ca16" y="196.205978"/>
     <use style="fill:#1f77b4;stroke:#1f77b4;" x="328.322368" xlink:href="#ma38376ca16" y="54.295242"/>
     <use style="fill:#1f77b4;stroke:#1f77b4;" x="101.568273" xlink:href="#ma38376ca16" y="169.30751"/>
     <use style="fill:#1f77b4;stroke:#1f77b4;" x="60.149088" xlink:href="#ma38376ca16" y="191.059093"/>
     <use style="fill:#1f77b4;stroke:#1f77b4;" x="235.725955" xlink:href="#ma38376ca16" y="118.481352"/>
     <use style="fill:#1f77b4;stroke:#1f77b4;" x="204.220444" xlink:href="#ma38376ca16" y="141.145847"/>
     <use style="fill:#1f77b4;stroke:#1f77b4;" x="91.86244" xlink:href="#ma38376ca16" y="193.856576"/>
     <use style="fill:#1f77b4;stroke:#1f77b4;" x="57.390992" xlink:href="#ma38376ca16" y="210.496187"/>
     <use style="fill:#1f77b4;stroke:#1f77b4;" x="311.724815" xlink:href="#ma38376ca16" y="50.108267"/>
     <use style="fill:#1f77b4;stroke:#1f77b4;" x="137.194254" xlink:href="#ma38376ca16" y="179.332984"/>
     <use style="fill:#1f77b4;stroke:#1f77b4;" x="178.714073" xlink:href="#ma38376ca16" y="134.049982"/>
     <use style="fill:#1f77b4;stroke:#1f77b4;" x="314.438124" xlink:href="#ma38376ca16" y="71.354839"/>
     <use style="fill:#1f77b4;stroke:#1f77b4;" x="144.369092" xlink:href="#ma38376ca16" y="156.608402"/>
     <use style="fill:#1f77b4;stroke:#1f77b4;" x="181.426883" xlink:href="#ma38376ca16" y="133.333118"/>
     <use style="fill:#1f77b4;stroke:#1f77b4;" x="152.82326" xlink:href="#ma38376ca16" y="153.473035"/>
     <use style="fill:#1f77b4;stroke:#1f77b4;" x="117.508724" xlink:href="#ma38376ca16" y="160.411925"/>
     <use style="fill:#1f77b4;stroke:#1f77b4;" x="333.731162" xlink:href="#ma38376ca16" y="57.255676"/>
     <use style="fill:#1f77b4;stroke:#1f77b4;" x="260.741716" xlink:href="#ma38376ca16" y="96.773466"/>
     <use style="fill:#1f77b4;stroke:#1f77b4;" x="220.191148" xlink:href="#ma38376ca16" y="132.315863"/>
     <use style="fill:#1f77b4;stroke:#1f77b4;" x="175.900163" xlink:href="#ma38376ca16" y="162.293115"/>
     <use style="fill:#1f77b4;stroke:#1f77b4;" x="76.300816" xlink:href="#ma38376ca16" y="193.92069"/>
     <use style="fill:#1f77b4;stroke:#1f77b4;" x="160.671258" xlink:href="#ma38376ca16" y="151.278061"/>
     <use style="fill:#1f77b4;stroke:#1f77b4;" x="282.50107" xlink:href="#ma38376ca16" y="71.051588"/>
     <use style="fill:#1f77b4;stroke:#1f77b4;" x="281.490509" xlink:href="#ma38376ca16" y="61.565853"/>
     <use style="fill:#1f77b4;stroke:#1f77b4;" x="332.508947" xlink:href="#ma38376ca16" y="68.55289"/>
     <use style="fill:#1f77b4;stroke:#1f77b4;" x="146.596218" xlink:href="#ma38376ca16" y="166.648271"/>
     <use style="fill:#1f77b4;stroke:#1f77b4;" x="107.58595" xlink:href="#ma38376ca16" y="181.125388"/>
     <use style="fill:#1f77b4;stroke:#1f77b4;" x="136.110722" xlink:href="#ma38376ca16" y="180.453359"/>
     <use style="fill:#1f77b4;stroke:#1f77b4;" x="195.092852" xlink:href="#ma38376ca16" y="117.176667"/>
     <use style="fill:#1f77b4;stroke:#1f77b4;" x="118.538171" xlink:href="#ma38376ca16" y="179.65529"/>
     <use style="fill:#1f77b4;stroke:#1f77b4;" x="359.775856" xlink:href="#ma38376ca16" y="24.637312"/>
     <use style="fill:#1f77b4;stroke:#1f77b4;" x="286.636448" xlink:href="#ma38376ca16" y="88.503623"/>
     <use style="fill:#1f77b4;stroke:#1f77b4;" x="100.066074" xlink:href="#ma38376ca16" y="195.877002"/>
     <use style="fill:#1f77b4;stroke:#1f77b4;" x="175.918162" xlink:href="#ma38376ca16" y="159.065295"/>
     <use style="fill:#1f77b4;stroke:#1f77b4;" x="218.643564" xlink:href="#ma38376ca16" y="125.218043"/>
     <use style="fill:#1f77b4;stroke:#1f77b4;" x="197.554987" xlink:href="#ma38376ca16" y="112.904047"/>
     <use style="fill:#1f77b4;stroke:#1f77b4;" x="87.975843" xlink:href="#ma38376ca16" y="176.724539"/>
     <use style="fill:#1f77b4;stroke:#1f77b4;" x="325.869413" xlink:href="#ma38376ca16" y="55.880118"/>
     <use style="fill:#1f77b4;stroke:#1f77b4;" x="156.600356" xlink:href="#ma38376ca16" y="155.03358"/>
     <use style="fill:#1f77b4;stroke:#1f77b4;" x="239.605895" xlink:href="#ma38376ca16" y="83.637209"/>
     <use style="fill:#1f77b4;stroke:#1f77b4;" x="198.474922" xlink:href="#ma38376ca16" y="133.851462"/>
     <use style="fill:#1f77b4;stroke:#1f77b4;" x="144.216496" xlink:href="#ma38376ca16" y="163.265086"/>
     <use style="fill:#1f77b4;stroke:#1f77b4;" x="137.768073" xlink:href="#ma38376ca16" y="171.989234"/>
     <use style="fill:#1f77b4;stroke:#1f77b4;" x="164.526239" xlink:href="#ma38376ca16" y="129.668862"/>
     <use style="fill:#1f77b4;stroke:#1f77b4;" x="250.463699" xlink:href="#ma38376ca16" y="83.064587"/>
     <use style="fill:#1f77b4;stroke:#1f77b4;" x="247.32692" xlink:href="#ma38376ca16" y="88.335326"/>
     <use style="fill:#1f77b4;stroke:#1f77b4;" x="170.116327" xlink:href="#ma38376ca16" y="151.651379"/>
     <use style="fill:#1f77b4;stroke:#1f77b4;" x="302.360028" xlink:href="#ma38376ca16" y="87.222408"/>
     <use style="fill:#1f77b4;stroke:#1f77b4;" x="183.438348" xlink:href="#ma38376ca16" y="117.799586"/>
     <use style="fill:#1f77b4;stroke:#1f77b4;" x="210.880098" xlink:href="#ma38376ca16" y="104.22949"/>
     <use style="fill:#1f77b4;stroke:#1f77b4;" x="133.874989" xlink:href="#ma38376ca16" y="159.002363"/>
     <use style="fill:#1f77b4;stroke:#1f77b4;" x="206.343417" xlink:href="#ma38376ca16" y="108.960522"/>
     <use style="fill:#1f77b4;stroke:#1f77b4;" x="165.345993" xlink:href="#ma38376ca16" y="143.968493"/>
     <use style="fill:#1f77b4;stroke:#1f77b4;" x="183.856272" xlink:href="#ma38376ca16" y="149.223001"/>
     <use style="fill:#1f77b4;stroke:#1f77b4;" x="79.940011" xlink:href="#ma38376ca16" y="180.994252"/>
     <use style="fill:#1f77b4;stroke:#1f77b4;" x="142.589178" xlink:href="#ma38376ca16" y="164.186798"/>
     <use style="fill:#1f77b4;stroke:#1f77b4;" x="109.315178" xlink:href="#ma38376ca16" y="182.879736"/>
     <use style="fill:#1f77b4;stroke:#1f77b4;" x="269.902243" xlink:href="#ma38376ca16" y="86.075348"/>
     <use style="fill:#1f77b4;stroke:#1f77b4;" x="73.162245" xlink:href="#ma38376ca16" y="196.925033"/>
     <use style="fill:#1f77b4;stroke:#1f77b4;" x="334.43735" xlink:href="#ma38376ca16" y="53.285173"/>
     <use style="fill:#1f77b4;stroke:#1f77b4;" x="70.220685" xlink:href="#ma38376ca16" y="212.646537"/>
     <use style="fill:#1f77b4;stroke:#1f77b4;" x="144.482259" xlink:href="#ma38376ca16" y="149.036415"/>
     <use style="fill:#1f77b4;stroke:#1f77b4;" x="354.875086" xlink:href="#ma38376ca16" y="17.083636"/>
     <use style="fill:#1f77b4;stroke:#1f77b4;" x="278.809402" xlink:href="#ma38376ca16" y="101.460109"/>
     <use style="fill:#1f77b4;stroke:#1f77b4;" x="232.345465" xlink:href="#ma38376ca16" y="129.798363"/>
     <use style="fill:#1f77b4;stroke:#1f77b4;" x="263.233799" xlink:href="#ma38376ca16" y="103.970795"/>
     <use style="fill:#1f77b4;stroke:#1f77b4;" x="128.409077" xlink:href="#ma38376ca16" y="164.858683"/>
     <use style="fill:#1f77b4;stroke:#1f77b4;" x="331.562689" xlink:href="#ma38376ca16" y="31.902275"/>
     <use style="fill:#1f77b4;stroke:#1f77b4;" x="115.126324" xlink:href="#ma38376ca16" y="155.865365"/>
     <use style="fill:#1f77b4;stroke:#1f77b4;" x="358.2148" xlink:href="#ma38376ca16" y="20.275995"/>
     <use style="fill:#1f77b4;stroke:#1f77b4;" x="191.846683" xlink:href="#ma38376ca16" y="144.604792"/>
     <use style="fill:#1f77b4;stroke:#1f77b4;" x="105.982394" xlink:href="#ma38376ca16" y="183.605677"/>
     <use style="fill:#1f77b4;stroke:#1f77b4;" x="214.752468" xlink:href="#ma38376ca16" y="98.6954"/>
     <use style="fill:#1f77b4;stroke:#1f77b4;" x="142.722062" xlink:href="#ma38376ca16" y="165.079007"/>
     <use style="fill:#1f77b4;stroke:#1f77b4;" x="161.517147" xlink:href="#ma38376ca16" y="133.133705"/>
     <use style="fill:#1f77b4;stroke:#1f77b4;" x="290.086971" xlink:href="#ma38376ca16" y="67.756172"/>
     <use style="fill:#1f77b4;stroke:#1f77b4;" x="276.096577" xlink:href="#ma38376ca16" y="97.400626"/>
     <use style="fill:#1f77b4;stroke:#1f77b4;" x="56.343182" xlink:href="#ma38376ca16" y="214.756364"/>
     <use style="fill:#1f77b4;stroke:#1f77b4;" x="81.687712" xlink:href="#ma38376ca16" y="198.448287"/>
     <use style="fill:#1f77b4;stroke:#1f77b4;" x="341.653992" xlink:href="#ma38376ca16" y="40.250782"/>
     <use style="fill:#1f77b4;stroke:#1f77b4;" x="182.774139" xlink:href="#ma38376ca16" y="155.59831"/>
     <use style="fill:#1f77b4;stroke:#1f77b4;" x="108.857202" xlink:href="#ma38376ca16" y="196.819833"/>
     <use style="fill:#1f77b4;stroke:#1f77b4;" x="302.278718" xlink:href="#ma38376ca16" y="46.345197"/>
     <use style="fill:#1f77b4;stroke:#1f77b4;" x="284.852582" xlink:href="#ma38376ca16" y="99.331465"/>
     <use style="fill:#1f77b4;stroke:#1f77b4;" x="360.706818" xlink:href="#ma38376ca16" y="24.246425"/>
     <use style="fill:#1f77b4;stroke:#1f77b4;" x="292.479842" xlink:href="#ma38376ca16" y="91.564351"/>
     <use style="fill:#1f77b4;stroke:#1f77b4;" x="235.648922" xlink:href="#ma38376ca16" y="104.60429"/>
    </g>
   </g>
   <g id="Quiver_1">
    <path clip-path="url(#p94de7dbd84)" d="M 211.260404 121.884071 
L 189.669841 126.965624 
L 191.467219 129.122204 
L 178.38324 128.332232 
L 189.741408 121.78956 
L 189.094571 124.521409 
L 210.685134 119.439856 
L 211.260404 121.884071 
" style="fill:#ff0000;"/>
   </g>
   <g id="Quiver_2">
    <path clip-path="url(#p94de7dbd84)" d="M 212.194876 120.374328 
L 217.276429 141.964891 
L 219.433009 140.167514 
L 218.643038 153.251492 
L 212.100365 141.893324 
L 214.832215 142.540161 
L 209.750662 120.949599 
L 212.194876 120.374328 
" style="fill:#0000ff;"/>
   </g>
   <g id="matplotlib.axis_1">
    <g id="xtick_1">
     <g id="line2d_1">
      <defs>
       <path d="M 0 0 
L 0 3.5 
" id="m7c5d750147" style="stroke:#000000;stroke-width:0.8;"/>
      </defs>
      <g>
       <use style="stroke:#000000;stroke-width:0.8;" x="55.216449" xlink:href="#m7c5d750147" y="224.64"/>
      </g>
     </g>
     <g id="text_1">
      <!-- −100 -->
      <defs>
       <path d="M 10.84375 25.296875 
L 10.84375 32.515625 
L 68.65625 32.515625 
L 68.65625 25.296875 
z
" id="LucidaGrande-8722"/>
       <path d="M 15.046875 0 
L 15.046875 7.234375 
L 29.5 7.234375 
L 29.5 64.265625 
L 15.046875 60.640625 
L 15.046875 68.0625 
L 39.15625 74.078125 
L 39.15625 7.234375 
L 53.609375 7.234375 
L 53.609375 0 
z
" id="LucidaGrande-49"/>
       <path d="M 31.34375 -1.8125 
Q 20.171875 -1.8125 13.25 8.703125 
Q 6.34375 19.234375 6.34375 36.1875 
Q 6.34375 53.265625 13.296875 63.671875 
Q 20.265625 74.078125 31.640625 74.078125 
Q 43.015625 74.078125 49.96875 63.671875 
Q 56.9375 53.265625 56.9375 36.328125 
Q 56.9375 18.953125 49.96875 8.5625 
Q 43.015625 -1.8125 31.34375 -1.8125 
z
M 31.453125 5.421875 
Q 46.734375 5.421875 46.734375 36.46875 
Q 46.734375 66.84375 31.640625 66.84375 
Q 16.609375 66.84375 16.609375 36.1875 
Q 16.609375 5.421875 31.453125 5.421875 
z
" id="LucidaGrande-48"/>
      </defs>
      <g transform="translate(41.753949 239.349375)scale(0.1 -0.1)">
       <use xlink:href="#LucidaGrande-8722"/>
       <use x="79.541016" xlink:href="#LucidaGrande-49"/>
       <use x="142.773438" xlink:href="#LucidaGrande-48"/>
       <use x="206.005859" xlink:href="#LucidaGrande-48"/>
      </g>
     </g>
    </g>
    <g id="xtick_2">
     <g id="line2d_2">
      <g>
       <use style="stroke:#000000;stroke-width:0.8;" x="94.155529" xlink:href="#m7c5d750147" y="224.64"/>
      </g>
     </g>
     <g id="text_2">
      <!-- −75 -->
      <defs>
       <path d="M 15.046875 0 
Q 16.453125 8.453125 19.0625 14.59375 
Q 21.6875 20.75 28.328125 31.5 
L 48.046875 63.234375 
L 10.84375 63.234375 
L 10.84375 72.265625 
L 57.234375 72.265625 
L 57.234375 63.234375 
Q 29.4375 22.265625 26.125 0 
z
" id="LucidaGrande-55"/>
       <path d="M 12.15625 -0.296875 
L 12.15625 8.296875 
Q 19.34375 5.421875 25.828125 5.421875 
Q 32.953125 5.421875 37.03125 9.609375 
Q 41.109375 13.8125 41.109375 21.1875 
Q 41.109375 37.453125 18.703125 37.453125 
Q 16.15625 37.453125 13.375 37.109375 
L 13.375 72.265625 
L 49.953125 72.265625 
L 49.953125 63.875 
L 21.828125 63.875 
L 21.828125 44.828125 
Q 35.75 44.828125 43.5625 38.421875 
Q 51.375 32.03125 51.375 20.703125 
Q 51.375 10.15625 44.265625 4.171875 
Q 37.15625 -1.8125 24.5625 -1.8125 
Q 19.09375 -1.8125 12.15625 -0.296875 
z
" id="LucidaGrande-53"/>
      </defs>
      <g transform="translate(83.854747 239.349375)scale(0.1 -0.1)">
       <use xlink:href="#LucidaGrande-8722"/>
       <use x="79.541016" xlink:href="#LucidaGrande-55"/>
       <use x="142.773438" xlink:href="#LucidaGrande-53"/>
      </g>
     </g>
    </g>
    <g id="xtick_3">
     <g id="line2d_3">
      <g>
       <use style="stroke:#000000;stroke-width:0.8;" x="133.094609" xlink:href="#m7c5d750147" y="224.64"/>
      </g>
     </g>
     <g id="text_3">
      <!-- −50 -->
      <g transform="translate(122.793827 239.349375)scale(0.1 -0.1)">
       <use xlink:href="#LucidaGrande-8722"/>
       <use x="79.541016" xlink:href="#LucidaGrande-53"/>
       <use x="142.773438" xlink:href="#LucidaGrande-48"/>
      </g>
     </g>
    </g>
    <g id="xtick_4">
     <g id="line2d_4">
      <g>
       <use style="stroke:#000000;stroke-width:0.8;" x="172.033689" xlink:href="#m7c5d750147" y="224.64"/>
      </g>
     </g>
     <g id="text_4">
      <!-- −25 -->
      <defs>
       <path d="M 8.296875 0 
L 8.296875 8.453125 
Q 12.5 18.265625 25.296875 29.828125 
L 30.8125 34.765625 
Q 41.453125 44.390625 41.453125 53.859375 
Q 41.453125 59.90625 37.8125 63.375 
Q 34.1875 66.84375 27.828125 66.84375 
Q 20.3125 66.84375 10.109375 61.03125 
L 10.109375 69.53125 
Q 19.734375 74.078125 29.203125 74.078125 
Q 39.359375 74.078125 45.5 68.609375 
Q 51.65625 63.140625 51.65625 54.109375 
Q 51.65625 47.609375 48.546875 42.578125 
Q 45.453125 37.546875 37.015625 30.375 
L 33.296875 27.203125 
Q 21.734375 17.390625 19.921875 8.453125 
L 51.3125 8.453125 
L 51.3125 0 
z
" id="LucidaGrande-50"/>
      </defs>
      <g transform="translate(161.732908 239.349375)scale(0.1 -0.1)">
       <use xlink:href="#LucidaGrande-8722"/>
       <use x="79.541016" xlink:href="#LucidaGrande-50"/>
       <use x="142.773438" xlink:href="#LucidaGrande-53"/>
      </g>
     </g>
    </g>
    <g id="xtick_5">
     <g id="line2d_5">
      <g>
       <use style="stroke:#000000;stroke-width:0.8;" x="210.972769" xlink:href="#m7c5d750147" y="224.64"/>
      </g>
     </g>
     <g id="text_5">
      <!-- 0 -->
      <g transform="translate(207.81105 239.349375)scale(0.1 -0.1)">
       <use xlink:href="#LucidaGrande-48"/>
      </g>
     </g>
    </g>
    <g id="xtick_6">
     <g id="line2d_6">
      <g>
       <use style="stroke:#000000;stroke-width:0.8;" x="249.911849" xlink:href="#m7c5d750147" y="224.64"/>
      </g>
     </g>
     <g id="text_6">
      <!-- 25 -->
      <g transform="translate(243.588412 239.349375)scale(0.1 -0.1)">
       <use xlink:href="#LucidaGrande-50"/>
       <use x="63.232422" xlink:href="#LucidaGrande-53"/>
      </g>
     </g>
    </g>
    <g id="xtick_7">
     <g id="line2d_7">
      <g>
       <use style="stroke:#000000;stroke-width:0.8;" x="288.850929" xlink:href="#m7c5d750147" y="224.64"/>
      </g>
     </g>
     <g id="text_7">
      <!-- 50 -->
      <g transform="translate(282.527492 239.349375)scale(0.1 -0.1)">
       <use xlink:href="#LucidaGrande-53"/>
       <use x="63.232422" xlink:href="#LucidaGrande-48"/>
      </g>
     </g>
    </g>
    <g id="xtick_8">
     <g id="line2d_8">
      <g>
       <use style="stroke:#000000;stroke-width:0.8;" x="327.790009" xlink:href="#m7c5d750147" y="224.64"/>
      </g>
     </g>
     <g id="text_8">
      <!-- 75 -->
      <g transform="translate(321.466572 239.349375)scale(0.1 -0.1)">
       <use xlink:href="#LucidaGrande-55"/>
       <use x="63.232422" xlink:href="#LucidaGrande-53"/>
      </g>
     </g>
    </g>
    <g id="xtick_9">
     <g id="line2d_9">
      <g>
       <use style="stroke:#000000;stroke-width:0.8;" x="366.729089" xlink:href="#m7c5d750147" y="224.64"/>
      </g>
     </g>
     <g id="text_9">
      <!-- 100 -->
      <g transform="translate(357.243933 239.349375)scale(0.1 -0.1)">
       <use xlink:href="#LucidaGrande-49"/>
       <use x="63.232422" xlink:href="#LucidaGrande-48"/>
       <use x="126.464844" xlink:href="#LucidaGrande-48"/>
      </g>
     </g>
    </g>
   </g>
   <g id="matplotlib.axis_2">
    <g id="ytick_1">
     <g id="line2d_10">
      <defs>
       <path d="M 0 0 
L -3.5 0 
" id="mcd12499e94" style="stroke:#000000;stroke-width:0.8;"/>
      </defs>
      <g>
       <use style="stroke:#000000;stroke-width:0.8;" x="41.125" xlink:href="#mcd12499e94" y="211.197409"/>
      </g>
     </g>
     <g id="text_10">
      <!-- −400 -->
      <defs>
       <path d="M 37.640625 0 
L 37.640625 20.453125 
L 5.125 20.453125 
L 5.125 27.734375 
L 37.640625 72.265625 
L 46.6875 72.265625 
L 46.6875 28.328125 
L 56.34375 28.328125 
L 56.34375 20.453125 
L 46.6875 20.453125 
L 46.6875 0 
z
M 14.546875 28.328125 
L 38.28125 28.328125 
L 38.28125 60.453125 
z
" id="LucidaGrande-52"/>
      </defs>
      <g transform="translate(7.2 215.052096)scale(0.1 -0.1)">
       <use xlink:href="#LucidaGrande-8722"/>
       <use x="79.541016" xlink:href="#LucidaGrande-52"/>
       <use x="142.773438" xlink:href="#LucidaGrande-48"/>
       <use x="206.005859" xlink:href="#LucidaGrande-48"/>
      </g>
     </g>
    </g>
    <g id="ytick_2">
     <g id="line2d_11">
      <g>
       <use style="stroke:#000000;stroke-width:0.8;" x="41.125" xlink:href="#mcd12499e94" y="165.929686"/>
      </g>
     </g>
     <g id="text_11">
      <!-- −200 -->
      <g transform="translate(7.2 169.784374)scale(0.1 -0.1)">
       <use xlink:href="#LucidaGrande-8722"/>
       <use x="79.541016" xlink:href="#LucidaGrande-50"/>
       <use x="142.773438" xlink:href="#LucidaGrande-48"/>
       <use x="206.005859" xlink:href="#LucidaGrande-48"/>
      </g>
     </g>
    </g>
    <g id="ytick_3">
     <g id="line2d_12">
      <g>
       <use style="stroke:#000000;stroke-width:0.8;" x="41.125" xlink:href="#mcd12499e94" y="120.661963"/>
      </g>
     </g>
     <g id="text_12">
      <!-- 0 -->
      <g transform="translate(27.801562 124.516651)scale(0.1 -0.1)">
       <use xlink:href="#LucidaGrande-48"/>
      </g>
     </g>
    </g>
    <g id="ytick_4">
     <g id="line2d_13">
      <g>
       <use style="stroke:#000000;stroke-width:0.8;" x="41.125" xlink:href="#mcd12499e94" y="75.394241"/>
      </g>
     </g>
     <g id="text_13">
      <!-- 200 -->
      <g transform="translate(15.154687 79.248928)scale(0.1 -0.1)">
       <use xlink:href="#LucidaGrande-50"/>
       <use x="63.232422" xlink:href="#LucidaGrande-48"/>
       <use x="126.464844" xlink:href="#LucidaGrande-48"/>
      </g>
     </g>
    </g>
    <g id="ytick_5">
     <g id="line2d_14">
      <g>
       <use style="stroke:#000000;stroke-width:0.8;" x="41.125" xlink:href="#mcd12499e94" y="30.126518"/>
      </g>
     </g>
     <g id="text_14">
      <!-- 400 -->
      <g transform="translate(15.154687 33.981206)scale(0.1 -0.1)">
       <use xlink:href="#LucidaGrande-52"/>
       <use x="63.232422" xlink:href="#LucidaGrande-48"/>
       <use x="126.464844" xlink:href="#LucidaGrande-48"/>
      </g>
     </g>
    </g>
   </g>
   <g id="patch_3">
    <path d="M 41.125 224.64 
L 41.125 7.2 
" style="fill:none;stroke:#000000;stroke-linecap:square;stroke-linejoin:miter;stroke-width:0.8;"/>
   </g>
   <g id="patch_4">
    <path d="M 375.925 224.64 
L 375.925 7.2 
" style="fill:none;stroke:#000000;stroke-linecap:square;stroke-linejoin:miter;stroke-width:0.8;"/>
   </g>
   <g id="patch_5">
    <path d="M 41.125 224.64 
L 375.925 224.64 
" style="fill:none;stroke:#000000;stroke-linecap:square;stroke-linejoin:miter;stroke-width:0.8;"/>
   </g>
   <g id="patch_6">
    <path d="M 41.125 7.2 
L 375.925 7.2 
" style="fill:none;stroke:#000000;stroke-linecap:square;stroke-linejoin:miter;stroke-width:0.8;"/>
   </g>
  </g>
 </g>
 <defs>
  <clipPath id="p94de7dbd84">
   <rect height="217.44" width="334.8" x="41.125" y="7.2"/>
  </clipPath>
 </defs>
</svg>
